<?xml version="1.0" encoding="UTF-8" standalone="no"?>
<svg
   xmlns:xml="http://www.w3.org/XML/1998/namespace"
   xmlns:svg="http://www.w3.org/2000/svg"
   xmlns="http://www.w3.org/2000/svg"
   xml:space="preserve"
   id="root"
   viewBox="-421 0 1094 504"
   height="250.00000"
   width="542.50000"
   preserveAspectRatio="none"
   y="0.00000000"
   x="0.00000000"
   version="1.0">
  <path
     id="path3029"
     style="fill:#295eac;fill-rule:nonzero;stroke:none"
     d="M 602.39882,504.32277 C 641.31915,504.32552 672.86363,472.76962 672.86637,433.85665 L 672.89168,73.494132 C 672.89444,34.581158 641.35439,3.0325639 602.43430,3.0297718 L -347.20522,2.9628519 C -386.12630,2.9602425 -417.67058,34.504231 -417.67330,73.417231 L -417.69881,433.78005 C -417.70156,472.69302 -386.16158,504.25320 -347.24046,504.25582 L 602.39882,504.32277 z " />
  <path
     id="path3031"
     style="fill:#fff100;fill-rule:nonzero;stroke:none"
     d="M -337.23978,489.18270 C -375.31172,489.17994 -402.25041,462.97717 -402.24771,425.82938 L -402.22357,81.359387 C -402.22094,44.226123 -375.27873,18.023041 -337.20656,18.025755 L 592.43680,18.091292 C 630.50453,18.093980 657.44341,44.300650 657.44077,81.433966 L 657.41664,425.90394 C 657.41393,463.05176 630.47135,489.25089 592.40361,489.24820 L -337.23978,489.18270 z M 582.10684,474.96667 C 619.31482,474.96929 641.72294,453.87696 641.72544,418.41158 L 641.74855,88.938618 C 641.75107,53.473262 619.34604,32.381910 582.13784,32.379326 L -326.91759,32.315251 C -364.11426,32.312772 -386.52971,53.400849 -386.53220,88.866231 L -386.55557,418.33921 C -386.55784,453.80456 -364.14554,474.90012 -326.94860,474.90259 L 582.10684,474.96667 z " />
  <path
     id="path3033"
     style="fill:#fff100;fill-rule:nonzero;stroke:none"
     d="M 508.44591,353.78143 C 462.77311,353.77832 419.60645,330.34654 419.60990,279.23476 C 419.61352,228.13007 462.78370,204.70431 508.45650,204.70742 C 554.13697,204.71072 597.29578,228.14262 597.29237,279.24725 C 597.28867,330.35905 554.12664,353.78473 508.44591,353.78143 z M -262.59224,310.59654 L -156.45566,310.60412 L -137.13372,350.00915 L -74.648400,350.01369 L -173.37429,156.91563 L -241.41581,156.91092 L -335.38131,349.99518 L -280.56473,349.99925 L -262.59224,310.59654 z M -18.393430,158.88817 L -66.468260,158.88480 L -66.481950,350.01424 L -18.406870,350.01756 L -18.393430,158.88817 z M 154.31312,322.34239 L 154.31856,245.67801 C 144.99664,209.09886 100.91612,206.64066 75.959271,206.63876 C 39.690747,206.63639 2.0937670,212.75521 -3.2361920,256.14238 L 43.640270,256.14568 C 44.971726,247.89601 47.006317,234.48936 70.303376,234.49106 C 82.280307,234.49198 102.86772,235.28962 102.86648,250.99679 C 102.86588,258.98263 93.888546,261.38087 86.562760,262.17568 L 42.681551,267.23538 C 13.066588,270.69231 -8.8963410,284.79814 -8.8981280,312.48584 C -8.9002810,341.76847 18.382391,353.74691 45.002466,353.74897 C 76.612930,353.75107 93.543105,342.03208 104.19295,333.25148 C 105.19097,341.23737 105.85915,343.36876 108.51773,350.02652 L 154.84708,350.02981 L 154.31312,322.34239 z M 412.70846,255.02033 C 412.71070,223.87442 380.31706,211.55647 346.27695,211.55399 C 318.43885,211.55214 305.67270,227.25068 299.77288,234.17209 C 287.98999,218.99972 276.53043,211.54916 251.31755,211.54743 C 220.54467,211.54514 219.51744,224.75860 213.61735,234.06391 L 212.96136,234.06387 L 212.96287,213.30634 L 165.17692,213.30278 L 165.16734,350.03050 L 214.92170,350.03400 L 214.92735,268.67369 C 214.92844,253.22967 221.81011,244.48274 243.41575,244.91468 C 264.39692,245.31972 265.04545,257.76817 265.04450,269.74772 L 265.03887,350.03748 L 316.75432,350.04121 L 316.76001,270.01567 C 316.76108,253.23686 321.03137,244.37726 343.94326,244.92194 C 361.28042,245.32644 368.12976,252.17756 366.86863,268.95530 L 366.86280,350.04462 L 412.70181,350.04785 L 412.70846,255.02033 z M 508.45433,236.11017 C 473.96148,236.10785 467.56250,261.14285 467.56113,279.23809 C 467.55999,297.34042 473.95540,322.36499 508.44820,322.36738 C 542.94025,322.36982 549.33890,297.34616 549.34030,279.24376 C 549.34141,261.14855 542.94635,236.11262 508.45433,236.11017 z M -210.51719,198.08618 L -210.51719,198.08618 L -174.62331,273.68514 L -244.29862,273.68010 L -210.51719,198.08618 z M 100.90979,299.17836 C 100.90846,316.48043 79.938125,327.12763 59.308349,327.12597 C 50.330807,327.12545 37.687235,323.13352 37.688161,310.09052 C 37.689179,294.65045 51.992805,291.18869 69.299813,288.79819 C 88.598121,286.40475 96.251590,284.00593 100.91107,281.07526 L 100.90979,299.17836 z M 614.89070,199.16973 C 614.88994,211.81413 605.42879,219.16528 594.85219,219.16458 C 584.22978,219.16380 574.76203,211.81135 574.76303,199.16687 C 574.76383,186.53771 584.23268,179.18708 594.85483,179.18787 C 605.43167,179.18851 614.89174,186.54046 614.89070,199.16973 z M 609.12651,199.16941 C 609.12709,189.98021 602.57974,183.84305 594.85472,183.84249 C 586.92543,183.84194 580.52757,189.97832 580.52695,199.16724 C 580.52636,208.37560 586.92308,214.56224 594.85243,214.50938 L 594.85237,214.56277 C 602.57738,214.56333 609.12590,208.37755 609.12651,199.16941 z M 604.10938,209.90808 L 598.66198,209.90763 L 593.69155,200.86567 L 591.52616,200.86546 L 591.52563,209.90715 L 586.92351,209.90673 L 586.92505,188.38753 L 594.95926,188.38799 C 600.51233,188.38845 603.78621,189.97995 603.78610,194.88777 C 603.78568,198.85626 601.46181,200.28164 598.61032,200.49683 L 604.10938,209.90808 z M 598.87504,194.41627 C 598.87504,192.19755 596.49888,192.03522 594.74815,192.03528 L 591.52686,192.03485 L 591.52632,197.21463 L 595.59992,197.21487 C 597.65252,197.21499 598.87464,196.79965 598.87504,194.41627 z " />
</svg>
