<?xml version="1.0" encoding="utf-8"?>
<!-- Generator: Adobe Illustrator 26.0.0, SVG Export Plug-In . SVG Version: 6.00 Build 0)  -->
<svg version="1.1" id="Layer_1"
	xmlns="http://www.w3.org/2000/svg"
	xmlns:xlink="http://www.w3.org/1999/xlink" x="0px" y="0px" width="258px" height="40px" viewBox="0 0 258 40" style="enable-background:new 0 0 258 40;" xml:space="preserve">
	<style type="text/css">
	.st0{fill-rule:evenodd;clip-rule:evenodd;fill:#0F0028;}
	.st1{filter:url(#Adobe_OpacityMaskFilter);}
	.st2{fill-rule:evenodd;clip-rule:evenodd;fill:#FFFFFF;}
	.st3{mask:url(#mask-3_00000164510153040365189050000005560682973065079962_);fill-rule:evenodd;clip-rule:evenodd;fill:#0F0028;}
	.st4{filter:url(#Adobe_OpacityMaskFilter_00000059991348133930218410000002889019631737953422_);}
	.st5{mask:url(#mask-3_00000163049959551582874210000001720095637637425035_);fill-rule:evenodd;clip-rule:evenodd;fill:#0F0028;}
	.st6{filter:url(#Adobe_OpacityMaskFilter_00000042734756024782007820000017556695305129919361_);}
	.st7{mask:url(#mask-3_00000048483000267578640220000010813044272657766016_);fill-rule:evenodd;clip-rule:evenodd;fill:#0F0028;}
	.st8{filter:url(#Adobe_OpacityMaskFilter_00000115486981836994467780000016357120020280747683_);}
	.st9{mask:url(#mask-3_00000023968114010023094440000017062652229451950004_);fill-rule:evenodd;clip-rule:evenodd;fill:#0F0028;}
	.st10{filter:url(#Adobe_OpacityMaskFilter_00000102509968908710370850000017959345849035802775_);}
	.st11{mask:url(#mask-3_00000038373121841293147890000018404065074001461420_);fill-rule:evenodd;clip-rule:evenodd;fill:#0F0028;}
	.st12{filter:url(#Adobe_OpacityMaskFilter_00000169556415977196152490000008095861284373676958_);}
	.st13{mask:url(#mask-3_00000124142253259595885650000010185275114707275944_);fill-rule:evenodd;clip-rule:evenodd;fill:#0F0028;}
	</style>
	<g id="Group-22" transform="translate(32.000000, 24.000000)">
		<path id="Fill-1" class="st0" d="M30.5,12.5c-9.1,0-14.5-6.8-14.5-16.4c0-9.5,5.5-16.5,14.5-16.5c7.9,0,12.7,4.4,13.6,11.1h-6.4
		c-0.8-3.8-3.3-6.2-7.1-6.2h-0.4c-4.9,0-7.9,5-7.9,11.6c0,6.5,3,11.5,7.9,11.5h0.4c4.2,0,6.6-3,7.1-6.1h6.4
		C43.6,7.5,39,12.5,30.5,12.5"/>
		<path id="Fill-3" class="st0" d="M57.5,2L56,2.4c-1.1,0.3-2,0.6-2.6,1.2c-0.5,0.4-0.8,1.1-0.8,1.9c0,0.8,0.3,1.4,0.7,1.8
		c0.6,0.6,1.4,0.9,2.4,0.9c2.4,0,5.4-1.6,5.4-5.9v-2.8C60.5,1,59,1.7,57.5,2 M66.7-3.2l0,9c0,1.1,0.1,1.4,1.2,1.4
		c0.4,0,0.8,0,1.1-0.1v4.8c0,0-1.9,0.3-3.4,0.3c-2.6,0-3.6-1.2-3.6-3.6V8.4l-0.6-0.1c-1.3,2.9-4.7,4.2-7.5,4.2
		C52,12.5,50.3,12,49,11c-1.5-1.1-2.4-2.8-2.4-5.1c0-2.2,0.9-4,2.5-5.2c1.3-0.9,3-1.5,5.2-1.8L56-1.4c3-0.4,4.8-1,4.8-2.9
		c0-1.7-1.4-2.6-3.7-2.6c-2.3,0-3.9,1.3-4.1,3.7h-5.9c0.1-5,4.1-7.9,10-7.9C63.2-11.1,66.7-9,66.7-3.2"/>
		<path id="Fill-5" class="st0" d="M81.9-5.1c-2.9,0-4.7,1.4-4.7,5.1v11.2h-6v-22.2H77v0.8c0,1.2-0.1,1.9-0.6,3.2l0.7,0.2
		c1.2-3.7,3.5-4.4,7-4.4c0.4,0,0.9,0,1.1,0l0,6.4C84.2-4.9,82.9-5.1,81.9-5.1"/>
		<polygon id="Fill-7" class="st0" points="106.4,-15.5 97.1,-15.5 97.1,11.3 91,11.3 91,-15.5 81.8,-15.5 81.8,-20.5 106.4,-20.5 	
		"/>
		<path id="Fill-9" class="st0" d="M112.4-5.1c-2.9,0-4.7,1.4-4.7,5.1v11.2h-6v-22.2h5.8v0.8c0,1.2-0.1,1.9-0.6,3.2l0.7,0.2
		c1.2-3.7,3.5-4.4,7-4.4c0.4,0,0.9,0,1.1,0l0,6.4C114.7-4.9,113.4-5.1,112.4-5.1"/>
		<path id="Fill-11" class="st0" d="M129,2l-1.5,0.4c-1.1,0.3-2,0.6-2.6,1.2c-0.5,0.4-0.8,1.1-0.8,1.9c0,0.8,0.3,1.4,0.7,1.8
		c0.6,0.6,1.4,0.9,2.4,0.9c2.4,0,5.4-1.6,5.4-5.9v-2.8C132,1,130.5,1.7,129,2 M138.2-3.2l0,9c0,1.1,0.1,1.4,1.2,1.4
		c0.4,0,0.8,0,1.1-0.1v4.8c0,0-1.9,0.3-3.4,0.3c-2.6,0-3.6-1.2-3.6-3.6V8.4l-0.6-0.1c-1.3,2.9-4.7,4.2-7.5,4.2
		c-1.8,0-3.5-0.5-4.8-1.5c-1.5-1.1-2.4-2.8-2.4-5.1c0-2.2,0.9-4,2.5-5.2c1.3-0.9,3-1.5,5.2-1.8l1.8-0.2c3-0.4,4.8-1,4.8-2.9
		c0-1.7-1.4-2.6-3.7-2.6c-2.3,0-3.9,1.3-4.1,3.7h-5.9c0.1-5,4.1-7.9,10-7.9C134.8-11.1,138.2-9,138.2-3.2"/>
		<path id="Fill-13" class="st0" d="M174.4-11.1l-6.5,22.4h-6.7l-2.4-9.8c-0.5-2.1-0.8-4.1-1-6h-0.7c-0.1,2-0.5,3.9-1,6l-2.4,9.8
		h-6.8l-6.5-22.4h6.1l3,10.6c0.5,1.9,0.8,3.8,0.9,5.7h0.7c0.2-1.8,0.6-3.8,1.1-5.7l2.5-10.6h5.6l2.4,10.8c0.4,1.8,0.9,3.9,1.1,5.5
		h0.7c0.1-1.7,0.4-3.8,1-5.7l2.9-10.6H174.4z"/>
		<g id="Clip-16">
		</g>
		<defs>
			<filter id="Adobe_OpacityMaskFilter" filterUnits="userSpaceOnUse" x="177.9" y="-21.6" width="5.9" height="32.9">
				<feColorMatrix type="matrix" values="1 0 0 0 0  0 1 0 0 0  0 0 1 0 0  0 0 0 1 0"/>
			</filter>
		</defs>

		<mask maskUnits="userSpaceOnUse" x="177.9" y="-21.6" width="5.9" height="32.9" id="mask-3_00000164510153040365189050000005560682973065079962_">
			<g class="st1">
				<polygon id="path-2_00000156564275999640889790000001859356367104668320_" class="st2" points="-32,16 226,16 226,-24 -32,-24 
							"/>
			</g>
		</mask>
		<polygon id="Fill-15" class="st3" points="177.9,11.3 183.8,11.3 183.8,-21.6 177.9,-21.6 	"/>
		<defs>

			<filter id="Adobe_OpacityMaskFilter_00000058553994117135453050000010299547118834578821_" filterUnits="userSpaceOnUse" x="186.1" y="-11.1" width="22.3" height="23.5">
				<feColorMatrix type="matrix" values="1 0 0 0 0  0 1 0 0 0  0 0 1 0 0  0 0 0 1 0"/>
			</filter>
		</defs>

		<mask maskUnits="userSpaceOnUse" x="186.1" y="-11.1" width="22.3" height="23.5" id="mask-3_00000163049959551582874210000001720095637637425035_">
			<g style="filter:url(#Adobe_OpacityMaskFilter_00000058553994117135453050000010299547118834578821_);">
				<polygon id="path-2_00000031193900169074366640000015102107090820757665_" class="st2" points="-32,16 226,16 226,-24 -32,-24 
							"/>
			</g>
		</mask>
		<path id="Fill-17" class="st5" d="M202.2-1.8c-0.3-2.8-1.9-5.1-4.8-5.1H197c-2.9,0-4.8,2.3-5,5.1H202.2z M207.9,0.8v1.1L192,2v0.1
		c0.1,3.3,2.2,5.7,5.4,5.7h0.2c2.6,0,4.5-1.8,4.8-3.7h6c-0.8,4.9-5.4,8.3-11.1,8.3c-7,0-11.2-4.8-11.2-11.7c0-7.3,4.5-11.8,11-11.8
		C203.7-11.1,207.9-6.5,207.9,0.8L207.9,0.8z"/>
		<defs>

			<filter id="Adobe_OpacityMaskFilter_00000059991698741491809720000000386272283289166977_" filterUnits="userSpaceOnUse" x="211.9" y="-11.1" width="14.1" height="22.4">
				<feColorMatrix type="matrix" values="1 0 0 0 0  0 1 0 0 0  0 0 1 0 0  0 0 0 1 0"/>
			</filter>
		</defs>

		<mask maskUnits="userSpaceOnUse" x="211.9" y="-11.1" width="14.1" height="22.4" id="mask-3_00000048483000267578640220000010813044272657766016_">
			<g style="filter:url(#Adobe_OpacityMaskFilter_00000059991698741491809720000000386272283289166977_);">
				<polygon id="path-2_00000029735719072661416920000011192761853525740703_" class="st2" points="-32,16 226,16 226,-24 -32,-24 
							"/>
			</g>
		</mask>
		<path id="Fill-18" class="st7" d="M222.6-5.1c-2.9,0-4.7,1.4-4.7,5.1v11.2h-6v-22.2h5.8v0.8c0,1.2-0.1,1.9-0.6,3.2l0.7,0.2
		c1.2-3.7,3.5-4.4,7-4.4c0.4,0,0.9,0,1.1,0l0,6.4C224.9-4.9,223.7-5.1,222.6-5.1"/>
		<defs>

			<filter id="Adobe_OpacityMaskFilter_00000103256080585455794040000003338562457540366777_" filterUnits="userSpaceOnUse" x="-32" y="-24" width="21.1" height="21.2">
				<feColorMatrix type="matrix" values="1 0 0 0 0  0 1 0 0 0  0 0 1 0 0  0 0 0 1 0"/>
			</filter>
		</defs>

		<mask maskUnits="userSpaceOnUse" x="-32" y="-24" width="21.1" height="21.2" id="mask-3_00000023968114010023094440000017062652229451950004_">
			<g style="filter:url(#Adobe_OpacityMaskFilter_00000103256080585455794040000003338562457540366777_);">
				<polygon id="path-2_00000018201292066982052400000012445445649063704250_" class="st2" points="-32,16 226,16 226,-24 -32,-24 
							"/>
			</g>
		</mask>
		<path id="Fill-19" class="st9" d="M-28.8-3.4l2.7-2.7c0.6-0.6,1.5-1,2.3-1h6.4c1.3,0,2.3-1.1,2.3-2.3v-6.4c0-0.9,0.3-1.7,1-2.3
		l2.7-2.7c0.7-0.7,0.8-1.9,0.1-2.6c-0.7-0.8-1.9-0.8-2.7,0l-2.7,2.7c-0.6,0.6-1.5,1-2.3,1h-6.4c-1.3,0-2.3,1.1-2.3,2.3v0.5v5.9
		c0,0.9-0.3,1.7-1,2.3L-31.4-6c-0.7,0.7-0.8,1.9-0.1,2.6C-30.8-2.6-29.6-2.6-28.8-3.4"/>
		<defs>

			<filter id="Adobe_OpacityMaskFilter_00000049179595162341827140000008530145750085872011_" filterUnits="userSpaceOnUse" x="-13.2" y="-6.4" width="21.1" height="21.2">
				<feColorMatrix type="matrix" values="1 0 0 0 0  0 1 0 0 0  0 0 1 0 0  0 0 0 1 0"/>
			</filter>
		</defs>

		<mask maskUnits="userSpaceOnUse" x="-13.2" y="-6.4" width="21.1" height="21.2" id="mask-3_00000038373121841293147890000018404065074001461420_">
			<g style="filter:url(#Adobe_OpacityMaskFilter_00000049179595162341827140000008530145750085872011_);">
				<polygon id="path-2_00000178893023974673858860000004264188312077593245_" class="st2" points="-32,16 226,16 226,-24 -32,-24 
							"/>
			</g>
		</mask>
		<path id="Fill-20" class="st11" d="M4.7-5.8L2-3.1c-0.6,0.6-1.5,1-2.3,1h-6.4C-8-2.1-9-1.1-9,0.2v0.5v5.9c0,0.9-0.3,1.7-1,2.3
		l-2.7,2.7c-0.7,0.7-0.8,1.9-0.1,2.6c0.7,0.8,1.9,0.8,2.7,0l2.7-2.7c0.6-0.6,1.5-1,2.3-1h6.4c1.3,0,2.3-1.1,2.3-2.3V1.9
		c0-0.9,0.3-1.7,1-2.3l2.7-2.7C8-3.9,8.1-5,7.4-5.8C6.7-6.5,5.5-6.5,4.7-5.8"/>
		<defs>

			<filter id="Adobe_OpacityMaskFilter_00000096052258928680376980000000822464908702714814_" filterUnits="userSpaceOnUse" x="-32" y="-24" width="39.9" height="40">
				<feColorMatrix type="matrix" values="1 0 0 0 0  0 1 0 0 0  0 0 1 0 0  0 0 0 1 0"/>
			</filter>
		</defs>

		<mask maskUnits="userSpaceOnUse" x="-32" y="-24" width="39.9" height="40" id="mask-3_00000124142253259595885650000010185275114707275944_">
			<g style="filter:url(#Adobe_OpacityMaskFilter_00000096052258928680376980000000822464908702714814_);">
				<polygon id="path-2_00000005947414817569724620000016236999302862940856_" class="st2" points="-32,16 226,16 226,-24 -32,-24 
							"/>
			</g>
		</mask>
		<path id="Fill-21" class="st13" d="M-5.4-6.7h6.5c1.3,0,2.4-1.1,2.4-2.4v-6.6c0-0.9,0.4-1.7,1-2.4l2.7-2.7c0.7-0.7,0.8-1.9,0.1-2.7
		c-0.7-0.8-2-0.8-2.7,0l-2.8,2.8c-0.6,0.6-1.5,1-2.4,1H-7c-1.3,0-2.4,1.1-2.4,2.4v0.5v6c0,0.9-0.4,1.7-1,2.4l-6,6
		c-0.6,0.6-1.5,1-2.4,1h-6.5c-1.3,0-2.4,1.1-2.4,2.4v0.5v6c0,0.9-0.4,1.7-1,2.4l-2.7,2.7c-0.7,0.7-0.8,1.9-0.1,2.7
		c0.7,0.8,2,0.8,2.7,0l2.8-2.8c0.6-0.6,1.5-1,2.4-1h6.5c1.3,0,2.4-1.1,2.4-2.4V2.7c0-0.9,0.4-1.7,1-2.4l6-6
		C-7.1-6.3-6.2-6.7-5.4-6.7"/>
	</g>
</svg>
